<svg xmlns="http://www.w3.org/2000/svg" viewBox="0 0 128 128" width="128" height="128">
  <defs>
    <style>
      .globe-lines {fill:none;stroke:#0056b3;stroke-width:3;stroke-miterlimit:10;}
      .globe-bg {fill:#e6f0ff;}
      .text-main {font-family:Arial Black, Arial, sans-serif;font-weight:900;font-size:36px;fill:#0056b3;text-anchor:middle;}
      .text-outline {font-family:Arial Black, Arial, sans-serif;font-weight:900;font-size:36px;fill:none;stroke:#ffffff;stroke-width:5;text-anchor:middle;}
    </style>
  </defs>

  <circle class="globe-bg" cx="64" cy="64" r="60"/>
  <circle class="globe-lines" cx="64" cy="64" r="60" stroke-width="4"/>

  <path class="globe-lines" d="M64,4c0,0-20,15-20,60s20,60,20,60"/>
  <path class="globe-lines" d="M64,4c0,0,20,15,20,60s-20,60-20,60"/>
  <line class="globe-lines" x1="4" y1="64" x2="124" y2="64"/>
  <path class="globe-lines" d="M12,38c0,0,25,10,52,10s52-10,52-10"/>
  <path class="globe-lines" d="M12,90c0,0,25-10,52-10s52,10,52,10"/>

  <text class="text-outline" x="64" y="76">CS144</text>
  <text class="text-main" x="64" y="76">CS144</text>
</svg>
